<svg xmlns="http://www.w3.org/2000/svg"  viewBox="0 0 50 50" width="50px" height="50px">    <path d="M 24.890625 3 C 18.379625 3 12.040547 4.30825 6.5605469 6.78125 C 5.4935469 7.26325 4.6804375 8.12875 4.2734375 9.21875 C 3.8694375 10.30175 3.9124844 11.476344 4.3964844 12.527344 C 4.8124844 13.427344 5.5060781 14.105344 6.3300781 14.527344 C 11.934078 11.574344 18.321766 10 24.884766 10 C 31.544766 10 38.007062 11.616437 43.664062 14.648438 C 44.493063 14.214438 45.181797 13.52725 45.591797 12.65625 C 46.082797 11.60825 46.134328 10.433656 45.736328 9.3476562 C 45.337328 8.2536563 44.530797 7.3835313 43.466797 6.8945312 C 37.930797 4.3475313 31.506625 3 24.890625 3 z M 24.884766 12 C 18.973766 12 13.215516 13.336375 8.1035156 15.859375 L 13.408203 27.144531 C 14.509203 25.834531 16.159 25 18 25 C 21.309 25 24 27.691 24 31 C 24 34.295 21.331969 36.975047 18.042969 36.998047 L 21.767578 44.921875 C 22.370578 46.202875 23.617484 47 25.021484 47 C 26.424484 47 27.669438 46.202875 28.273438 44.921875 L 29.714844 41.857422 C 27.022844 41.267422 25 38.867 25 36 C 25 32.691 27.691 30 31 30 C 32.392 30 33.670453 30.480297 34.689453 31.279297 L 41.888672 15.972656 C 36.722672 13.375656 30.888766 12 24.884766 12 z M 18 15 C 19.105 15 20 15.895 20 17 C 20 18.105 19.105 19 18 19 C 16.895 19 16 18.105 16 17 C 16 15.895 16.895 15 18 15 z M 32 15 C 33.105 15 34 15.895 34 17 C 34 18.105 33.105 19 32 19 C 30.895 19 30 18.105 30 17 C 30 15.895 30.895 15 32 15 z M 21.154297 21.011719 C 21.407172 21.051344 21.644141 21.187156 21.806641 21.410156 C 21.852641 21.470156 23.021 23 25 23 C 26.979 23 28.146312 21.470297 28.195312 21.404297 C 28.524313 20.964297 29.150797 20.871266 29.591797 21.197266 C 30.033797 21.524266 30.130641 22.145844 29.806641 22.589844 C 29.735641 22.688844 28.014 25 25 25 C 21.986 25 20.263406 22.687844 20.191406 22.589844 C 19.865406 22.143844 19.963156 21.518359 20.410156 21.193359 C 20.633156 21.029859 20.901422 20.972094 21.154297 21.011719 z M 18 27 C 16.416 27 15.055203 27.932484 14.408203 29.271484 L 17.042969 34.871094 C 17.350969 34.948094 17.668 35 18 35 C 20.206 35 22 33.206 22 31 C 22 28.794 20.206 27 18 27 z M 31 32 C 28.794 32 27 33.794 27 36 C 27 38.072 28.588422 39.760938 30.607422 39.960938 L 33.806641 33.15625 C 33.083641 32.44325 32.094 32 31 32 z"/></svg>